<svg id="logo" viewBox="0 0 297 48" fill="none" xmlns="http://www.w3.org/2000/svg">
<path d="M37.6542 8.50371C33.8486 8.71631 26.2847 9.49014 21.6153 12.3038C21.2931 12.498 21.1104 12.8432 21.1104 13.2041V38.078C21.1104 38.8676 21.9875 39.3666 22.7271 39.0002C27.5312 36.6199 34.4792 35.9705 37.9146 35.7928C39.0875 35.7319 39.9993 34.8064 39.9993 33.6969V10.6023C40 9.3917 38.9333 8.43262 37.6542 8.50371ZM18.384 12.3038C13.7153 9.49014 6.15139 8.71699 2.34583 8.50371C1.06667 8.43262 0 9.3917 0 10.6023V33.6976C0 34.8077 0.911806 35.7333 2.08472 35.7935C5.52153 35.9712 12.4729 36.6213 17.2771 39.0029C18.0146 39.3687 18.8889 38.8703 18.8889 38.0828V13.1918C18.8889 12.8302 18.7069 12.4986 18.384 12.3038Z" fill="#28A745"/>
<path d="M50.3403 38H47.4351V13.0146H61.3633V15.5952H50.3403V24.7383H60.6968V27.3188H50.3403V38ZM67.9258 38H65.0889V19.2695H67.9258V38ZM64.8496 14.1938C64.8496 13.5444 65.0091 13.0716 65.3281 12.7754C65.6471 12.4678 66.0459 12.314 66.5244 12.314C66.9801 12.314 67.3732 12.4678 67.7036 12.7754C68.034 13.083 68.1992 13.5558 68.1992 14.1938C68.1992 14.8319 68.034 15.3104 67.7036 15.6294C67.3732 15.937 66.9801 16.0908 66.5244 16.0908C66.0459 16.0908 65.6471 15.937 65.3281 15.6294C65.0091 15.3104 64.8496 14.8319 64.8496 14.1938ZM86.7588 38V25.8833C86.7588 24.3566 86.4113 23.2173 85.7163 22.4653C85.0213 21.7134 83.9333 21.3374 82.4521 21.3374C80.4925 21.3374 79.057 21.8672 78.1455 22.9268C77.234 23.9863 76.7783 25.7352 76.7783 28.1733V38H73.9414V19.2695H76.2485L76.71 21.833H76.8467C77.4277 20.9102 78.2424 20.1981 79.2905 19.6968C80.3387 19.1841 81.5065 18.9277 82.7939 18.9277C85.0498 18.9277 86.7474 19.4746 87.8867 20.5684C89.026 21.6507 89.5957 23.3882 89.5957 25.7808V38H86.7588ZM106.959 38L106.395 35.334H106.258C105.324 36.5075 104.39 37.305 103.456 37.7266C102.533 38.1367 101.376 38.3418 99.9863 38.3418C98.1292 38.3418 96.6709 37.8633 95.6113 36.9062C94.5632 35.9492 94.0391 34.5877 94.0391 32.8218C94.0391 29.0392 97.064 27.0568 103.114 26.8745L106.292 26.772V25.6099C106.292 24.1401 105.973 23.0578 105.335 22.3628C104.709 21.6564 103.701 21.3032 102.311 21.3032C100.75 21.3032 98.9837 21.7817 97.0127 22.7388L96.1411 20.5684C97.064 20.0671 98.0723 19.674 99.166 19.3892C100.271 19.1043 101.376 18.9619 102.481 18.9619C104.715 18.9619 106.367 19.4575 107.438 20.4487C108.52 21.4399 109.061 23.0293 109.061 25.2168V38H106.959ZM100.55 36.0005C102.316 36.0005 103.701 35.5163 104.703 34.5479C105.717 33.5794 106.224 32.2236 106.224 30.4805V28.7886L103.387 28.9082C101.131 28.988 99.5021 29.3411 98.4995 29.9678C97.5083 30.583 97.0127 31.5457 97.0127 32.856C97.0127 33.8813 97.3203 34.6618 97.9355 35.1973C98.5622 35.7327 99.4338 36.0005 100.55 36.0005ZM127.74 38V25.8833C127.74 24.3566 127.393 23.2173 126.698 22.4653C126.003 21.7134 124.915 21.3374 123.434 21.3374C121.474 21.3374 120.038 21.8672 119.127 22.9268C118.215 23.9863 117.76 25.7352 117.76 28.1733V38H114.923V19.2695H117.23L117.691 21.833H117.828C118.409 20.9102 119.224 20.1981 120.272 19.6968C121.32 19.1841 122.488 18.9277 123.775 18.9277C126.031 18.9277 127.729 19.4746 128.868 20.5684C130.007 21.6507 130.577 23.3882 130.577 25.7808V38H127.74ZM143.907 38.3418C141.196 38.3418 139.094 37.5101 137.601 35.8467C136.12 34.1719 135.379 31.8078 135.379 28.7544C135.379 25.6213 136.131 23.2002 137.635 21.4912C139.151 19.7822 141.304 18.9277 144.095 18.9277C144.995 18.9277 145.895 19.0246 146.795 19.2183C147.695 19.4119 148.402 19.6398 148.915 19.9019L148.043 22.3115C147.416 22.0609 146.733 21.8558 145.992 21.6963C145.252 21.5254 144.597 21.4399 144.027 21.4399C140.222 21.4399 138.319 23.8667 138.319 28.7202C138.319 31.0216 138.78 32.7876 139.703 34.0181C140.637 35.2485 142.016 35.8638 143.839 35.8638C145.4 35.8638 147 35.5277 148.641 34.8555V37.3677C147.388 38.0171 145.81 38.3418 143.907 38.3418ZM161.014 38.3418C158.246 38.3418 156.058 37.4987 154.452 35.8125C152.857 34.1263 152.059 31.785 152.059 28.7886C152.059 25.7694 152.8 23.3711 154.281 21.5938C155.773 19.8164 157.773 18.9277 160.279 18.9277C162.626 18.9277 164.483 19.7025 165.851 21.252C167.218 22.79 167.901 24.8237 167.901 27.353V29.1475H154.999C155.056 31.3464 155.608 33.0155 156.656 34.1548C157.716 35.2941 159.203 35.8638 161.117 35.8638C163.133 35.8638 165.127 35.4422 167.098 34.5991V37.1284C166.096 37.5614 165.144 37.869 164.244 38.0513C163.355 38.245 162.279 38.3418 161.014 38.3418ZM160.245 21.3032C158.741 21.3032 157.539 21.7931 156.639 22.7729C155.75 23.7528 155.226 25.1086 155.067 26.8403H164.859C164.859 25.0516 164.461 23.6844 163.663 22.7388C162.866 21.7817 161.726 21.3032 160.245 21.3032Z" fill="#28A745"/>
<path d="M187.435 38V13.0146H190.34V35.3682H201.363V38H187.435ZM213.104 38.3418C210.335 38.3418 208.148 37.4987 206.542 35.8125C204.946 34.1263 204.149 31.785 204.149 28.7886C204.149 25.7694 204.889 23.3711 206.371 21.5938C207.863 19.8164 209.863 18.9277 212.369 18.9277C214.716 18.9277 216.573 19.7025 217.94 21.252C219.308 22.79 219.991 24.8237 219.991 27.353V29.1475H207.088C207.145 31.3464 207.698 33.0155 208.746 34.1548C209.806 35.2941 211.292 35.8638 213.207 35.8638C215.223 35.8638 217.217 35.4422 219.188 34.5991V37.1284C218.185 37.5614 217.234 37.869 216.334 38.0513C215.445 38.245 214.369 38.3418 213.104 38.3418ZM212.335 21.3032C210.831 21.3032 209.629 21.7931 208.729 22.7729C207.84 23.7528 207.316 25.1086 207.157 26.8403H216.949C216.949 25.0516 216.55 23.6844 215.753 22.7388C214.955 21.7817 213.816 21.3032 212.335 21.3032ZM237.594 35.4878H237.44C236.13 37.3905 234.17 38.3418 231.561 38.3418C229.111 38.3418 227.203 37.5044 225.836 35.8296C224.48 34.1548 223.802 31.7736 223.802 28.686C223.802 25.5985 224.486 23.2002 225.853 21.4912C227.22 19.7822 229.123 18.9277 231.561 18.9277C234.102 18.9277 236.05 19.8506 237.406 21.6963H237.628L237.508 20.3462L237.44 19.0303V11.4082H240.277V38H237.97L237.594 35.4878ZM231.92 35.9663C233.857 35.9663 235.258 35.4422 236.124 34.394C237.001 33.3345 237.44 31.6312 237.44 29.2842V28.686C237.44 26.0314 236.996 24.1401 236.107 23.0122C235.23 21.8729 233.823 21.3032 231.886 21.3032C230.222 21.3032 228.946 21.9526 228.058 23.2515C227.18 24.5389 226.742 26.3618 226.742 28.7202C226.742 31.1128 227.18 32.9186 228.058 34.1377C228.935 35.3568 230.222 35.9663 231.92 35.9663ZM261.639 19.2695V21.064L258.17 21.4741C258.489 21.8729 258.774 22.397 259.024 23.0464C259.275 23.6844 259.4 24.4079 259.4 25.2168C259.4 27.0511 258.774 28.5151 257.521 29.6089C256.267 30.7026 254.547 31.2495 252.359 31.2495C251.801 31.2495 251.277 31.2039 250.787 31.1128C249.579 31.7508 248.976 32.554 248.976 33.5225C248.976 34.0352 249.186 34.4168 249.608 34.6675C250.029 34.9067 250.753 35.0264 251.778 35.0264H255.094C257.122 35.0264 258.677 35.4536 259.759 36.3081C260.853 37.1626 261.4 38.4045 261.4 40.0337C261.4 42.1073 260.568 43.6852 258.905 44.7676C257.241 45.8613 254.815 46.4082 251.625 46.4082C249.175 46.4082 247.284 45.9525 245.951 45.041C244.629 44.1296 243.968 42.8421 243.968 41.1787C243.968 40.0394 244.333 39.0539 245.062 38.2222C245.791 37.3905 246.817 36.8265 248.138 36.5303C247.66 36.3138 247.255 35.9777 246.925 35.522C246.606 35.0662 246.446 34.5365 246.446 33.9326C246.446 33.249 246.629 32.6509 246.993 32.1382C247.358 31.6255 247.933 31.1299 248.719 30.6514C247.751 30.2526 246.959 29.5747 246.344 28.6177C245.74 27.6606 245.438 26.5669 245.438 25.3364C245.438 23.2856 246.053 21.7077 247.284 20.6025C248.514 19.486 250.257 18.9277 252.513 18.9277C253.493 18.9277 254.376 19.0417 255.162 19.2695H261.639ZM246.703 41.1445C246.703 42.1585 247.13 42.9276 247.984 43.4517C248.839 43.9757 250.064 44.2378 251.659 44.2378C254.04 44.2378 255.8 43.8789 256.939 43.1611C258.09 42.4548 258.666 41.492 258.666 40.2729C258.666 39.259 258.352 38.5526 257.726 38.1538C257.099 37.7664 255.92 37.5728 254.188 37.5728H250.787C249.5 37.5728 248.497 37.8804 247.779 38.4956C247.062 39.1108 246.703 39.9938 246.703 41.1445ZM248.241 25.2681C248.241 26.5783 248.611 27.5695 249.352 28.2417C250.092 28.9139 251.123 29.25 252.445 29.25C255.213 29.25 256.598 27.9056 256.598 25.2168C256.598 22.4027 255.196 20.9956 252.394 20.9956C251.061 20.9956 250.035 21.3545 249.317 22.0723C248.6 22.79 248.241 23.8553 248.241 25.2681ZM273.397 38.3418C270.628 38.3418 268.441 37.4987 266.834 35.8125C265.239 34.1263 264.442 31.785 264.442 28.7886C264.442 25.7694 265.182 23.3711 266.664 21.5938C268.156 19.8164 270.156 18.9277 272.662 18.9277C275.009 18.9277 276.866 19.7025 278.233 21.252C279.601 22.79 280.284 24.8237 280.284 27.353V29.1475H267.381C267.438 31.3464 267.991 33.0155 269.039 34.1548C270.099 35.2941 271.585 35.8638 273.5 35.8638C275.516 35.8638 277.51 35.4422 279.481 34.5991V37.1284C278.478 37.5614 277.527 37.869 276.627 38.0513C275.738 38.245 274.662 38.3418 273.397 38.3418ZM272.628 21.3032C271.124 21.3032 269.922 21.7931 269.022 22.7729C268.133 23.7528 267.609 25.1086 267.45 26.8403H277.242C277.242 25.0516 276.843 23.6844 276.046 22.7388C275.248 21.7817 274.109 21.3032 272.628 21.3032ZM293.683 18.9277C294.514 18.9277 295.261 18.9961 295.921 19.1328L295.528 21.7646C294.754 21.5938 294.07 21.5083 293.478 21.5083C291.962 21.5083 290.663 22.1235 289.581 23.354C288.51 24.5845 287.975 26.1169 287.975 27.9512V38H285.138V19.2695H287.479L287.804 22.7388H287.94C288.635 21.5197 289.473 20.5798 290.453 19.9189C291.432 19.2581 292.509 18.9277 293.683 18.9277Z" fill="white"/>
</svg>
